<svg width="150" height="140" viewBox="0 0 150 140" fill="none" xmlns="http://www.w3.org/2000/svg">
<path d="M150 61.5925C149.989 51.1984 146.035 41.2333 139.004 33.8835C131.973 26.5338 122.441 22.3999 112.498 22.3888C111.312 22.3888 110.127 22.4588 108.955 22.5708C105.931 15.8241 101.131 10.1179 95.1166 6.12045C89.1021 2.12305 82.1226 0 74.9955 0C67.8684 0 60.8888 2.12305 54.8744 6.12045C48.8599 10.1179 44.0597 15.8241 41.0358 22.5708C39.8639 22.4588 38.6786 22.3888 37.4932 22.3888C28.9801 22.3909 20.7209 25.4209 14.0735 30.9806C7.42612 36.5403 2.78602 44.2989 0.915997 52.9809C-0.954021 61.6629 0.0573334 70.7517 3.78381 78.7532C7.51028 86.7547 13.7301 93.1927 21.4208 97.0089V128.799C21.4208 131.77 22.5497 134.619 24.5591 136.719C26.5686 138.82 29.294 140 32.1357 140H117.855C120.697 140 123.422 138.82 125.432 136.719C127.441 134.619 128.57 131.77 128.57 128.799V97.0089C134.977 93.8236 140.39 88.8068 144.182 82.539C147.975 76.2713 149.992 69.0089 150 61.5925ZM117.855 128.799H32.1357V100.39C33.9099 100.66 35.7004 100.796 37.4932 100.796H112.498C114.291 100.796 116.081 100.66 117.855 100.39V128.799ZM112.498 89.5952H103.29L106.98 74.1517C107.297 72.7209 107.064 71.2171 106.331 69.9642C105.598 68.7113 104.423 67.8096 103.06 67.4534C101.697 67.0972 100.255 67.3149 99.0436 68.0598C97.8327 68.8046 96.9501 70.0169 96.5861 71.4354L92.2398 89.5952H80.3529V72.7936C80.3529 71.3082 79.7885 69.8837 78.7838 68.8334C77.7791 67.7831 76.4164 67.193 74.9955 67.193C73.5746 67.193 72.2119 67.7831 71.2072 68.8334C70.2025 69.8837 69.638 71.3082 69.638 72.7936V89.5952H57.7511L53.4049 71.4354C53.2442 70.7111 52.9472 70.0275 52.5311 69.4244C52.1151 68.8213 51.5883 68.3109 50.9815 67.9229C50.3748 67.5349 49.7002 67.2771 48.9971 67.1645C48.294 67.0519 47.5765 67.0868 46.8865 67.2671C46.1965 67.4475 45.5477 67.7696 44.978 68.2149C44.4083 68.6601 43.9291 69.2194 43.5684 69.8603C43.2077 70.5011 42.9727 71.2106 42.8771 71.9474C42.7814 72.6842 42.8271 73.4336 43.0114 74.1517L46.7014 89.5952H37.4932C30.3888 89.5952 23.5753 86.6449 18.5517 81.3934C13.5281 76.1419 10.7059 69.0193 10.7059 61.5925C10.7059 54.1657 13.5281 47.0431 18.5517 41.7916C23.5753 36.5401 30.3888 33.5898 37.4932 33.5898H37.8816C37.6224 35.4444 37.4926 37.3161 37.4932 39.1904C37.4932 40.6757 38.0577 42.1002 39.0624 43.1505C40.0671 44.2008 41.4298 44.7909 42.8507 44.7909C44.2716 44.7909 45.6343 44.2008 46.639 43.1505C47.6437 42.1002 48.2081 40.6757 48.2081 39.1904C48.2081 31.7636 51.0304 24.641 56.054 19.3895C61.0776 14.138 67.891 11.1877 74.9955 11.1877C82.0999 11.1877 88.9134 14.138 93.937 19.3895C98.9606 24.641 101.783 31.7636 101.783 39.1904C101.783 40.6757 102.347 42.1002 103.352 43.1505C104.357 44.2008 105.719 44.7909 107.14 44.7909C108.561 44.7909 109.924 44.2008 110.929 43.1505C111.933 42.1002 112.498 40.6757 112.498 39.1904C112.498 37.3161 112.369 35.4444 112.109 33.5898H112.498C119.602 33.5898 126.416 36.5401 131.439 41.7916C136.463 47.0431 139.285 54.1657 139.285 61.5925C139.285 69.0193 136.463 76.1419 131.439 81.3934C126.416 86.6449 119.602 89.5952 112.498 89.5952Z" fill="white"/>
</svg>
