<svg width="24" height="24" viewBox="0 0 24 24" fill="none" xmlns="http://www.w3.org/2000/svg">
<path d="M5.30499 3.25228C5.23913 3.17804 5.15918 3.1176 5.06979 3.07448C4.9804 3.03136 4.88334 3.00641 4.78423 3.00108C4.68513 2.99575 4.58595 3.01014 4.49245 3.04342C4.39895 3.0767 4.31298 3.12821 4.23953 3.19496C4.16608 3.26171 4.10661 3.34237 4.06457 3.43227C4.02252 3.52218 3.99874 3.61953 3.9946 3.71869C3.99045 3.81785 4.00603 3.91685 4.04043 4.00995C4.07483 4.10304 4.12737 4.18839 4.19499 4.26103L5.99874 6.24572C2.59374 8.33541 1.12937 11.5567 1.06468 11.7029C1.02203 11.7988 1 11.9026 1 12.0076C1 12.1126 1.02203 12.2164 1.06468 12.3123C1.09749 12.3863 1.89155 14.147 3.65687 15.9123C6.00905 18.2635 8.97999 19.5067 12.25 19.5067C13.9306 19.5162 15.5942 19.1702 17.1316 18.4913L19.1941 20.761C19.2599 20.8353 19.3399 20.8957 19.4293 20.9388C19.5186 20.9819 19.6157 21.0069 19.7148 21.0122C19.8139 21.0176 19.9131 21.0032 20.0066 20.9699C20.1001 20.9366 20.1861 20.8851 20.2595 20.8183C20.333 20.7516 20.3924 20.6709 20.4345 20.581C20.4765 20.4911 20.5003 20.3938 20.5044 20.2946C20.5086 20.1955 20.493 20.0965 20.4586 20.0034C20.4242 19.9103 20.3717 19.8249 20.3041 19.7523L5.30499 3.25228ZM9.74218 10.3623L13.6487 14.6607C13.0605 14.9702 12.386 15.0755 11.7314 14.9602C11.0768 14.8448 10.479 14.5153 10.0319 14.0234C9.58481 13.5315 9.31377 12.905 9.26134 12.2424C9.2089 11.5797 9.37804 10.9184 9.74218 10.3623ZM12.25 18.0067C9.36437 18.0067 6.84343 16.9576 4.75655 14.8895C3.89997 14.0382 3.17145 13.0671 2.59374 12.0067C3.03343 11.1826 4.43687 8.87634 7.0328 7.37728L8.7203 9.22884C8.06699 10.0656 7.73052 11.1063 7.77036 12.1671C7.81021 13.2279 8.22379 14.2405 8.93802 15.0259C9.65225 15.8112 10.6211 16.3188 11.6734 16.4589C12.7257 16.599 13.7936 16.3625 14.6884 15.7913L16.0694 17.3101C14.8506 17.7777 13.5553 18.0139 12.25 18.0067ZM12.8125 9.06009C12.6171 9.0228 12.4444 8.90939 12.3326 8.74483C12.2208 8.58027 12.1789 8.37802 12.2162 8.18259C12.2535 7.98716 12.3669 7.81455 12.5315 7.70273C12.6961 7.59091 12.8983 7.54905 13.0937 7.58634C14.0496 7.77166 14.92 8.26101 15.575 8.98142C16.23 9.70183 16.6346 10.6147 16.7284 11.5838C16.7469 11.7819 16.686 11.9792 16.5591 12.1323C16.4322 12.2854 16.2496 12.3819 16.0516 12.4004C16.0281 12.4018 16.0047 12.4018 15.9812 12.4004C15.7938 12.4012 15.6128 12.3318 15.474 12.2058C15.3352 12.0798 15.2486 11.9064 15.2312 11.7198C15.1681 11.0751 14.8986 10.4681 14.4628 9.98891C14.0271 9.50972 13.4482 9.18397 12.8125 9.06009ZM23.4325 12.3123C23.3931 12.4004 22.4434 14.5032 20.305 16.4185C20.2319 16.4861 20.1461 16.5384 20.0527 16.5724C19.9592 16.6065 19.8599 16.6216 19.7605 16.6169C19.6611 16.6122 19.5636 16.5878 19.4738 16.545C19.3839 16.5023 19.3035 16.4421 19.2371 16.368C19.1708 16.2938 19.1198 16.2072 19.0873 16.1132C19.0547 16.0192 19.0412 15.9196 19.0475 15.8203C19.0537 15.721 19.0797 15.624 19.1239 15.5348C19.168 15.4457 19.2295 15.3662 19.3047 15.301C20.3538 14.3585 21.2351 13.2445 21.9109 12.0067C21.3319 10.9452 20.6018 9.97348 19.7434 9.12197C17.6566 7.05572 15.1356 6.00665 12.25 6.00665C11.642 6.00591 11.0349 6.05514 10.435 6.15384C10.3374 6.1711 10.2374 6.16885 10.1407 6.14723C10.044 6.12561 9.95259 6.08505 9.87167 6.02788C9.79074 5.97072 9.72195 5.89809 9.66925 5.81419C9.61656 5.73029 9.58101 5.63678 9.56466 5.53906C9.54832 5.44134 9.55149 5.34135 9.57401 5.24487C9.59652 5.14838 9.63793 5.05731 9.69584 4.97692C9.75375 4.89653 9.82702 4.82842 9.9114 4.7765C9.99579 4.72459 10.0896 4.68991 10.1875 4.67447C10.8692 4.56191 11.559 4.50578 12.25 4.50665C15.52 4.50665 18.4909 5.74978 20.8431 8.10197C22.6084 9.86728 23.4025 11.6288 23.4353 11.7029C23.4779 11.7988 23.5 11.9026 23.5 12.0076C23.5 12.1126 23.4779 12.2164 23.4353 12.3123H23.4325Z" fill="#9E9E9E"/>
</svg>
