<svg width="25" height="30" viewBox="0 0 25 30" fill="none" xmlns="http://www.w3.org/2000/svg">
<path d="M18.1818 18.8888C18.1818 19.1835 18.0621 19.4661 17.849 19.6745C17.6359 19.8829 17.3468 19.9999 17.0455 19.9999H7.95455C7.65316 19.9999 7.36412 19.8829 7.15102 19.6745C6.93791 19.4661 6.81818 19.1835 6.81818 18.8888C6.81818 18.5941 6.93791 18.3115 7.15102 18.1031C7.36412 17.8948 7.65316 17.7777 7.95455 17.7777H17.0455C17.3468 17.7777 17.6359 17.8948 17.849 18.1031C18.0621 18.3115 18.1818 18.5941 18.1818 18.8888ZM17.0455 13.3332H7.95455C7.65316 13.3332 7.36412 13.4503 7.15102 13.6587C6.93791 13.867 6.81818 14.1497 6.81818 14.4443C6.81818 14.739 6.93791 15.0216 7.15102 15.23C7.36412 15.4384 7.65316 15.5555 7.95455 15.5555H17.0455C17.3468 15.5555 17.6359 15.4384 17.849 15.23C18.0621 15.0216 18.1818 14.739 18.1818 14.4443C18.1818 14.1497 18.0621 13.867 17.849 13.6587C17.6359 13.4503 17.3468 13.3332 17.0455 13.3332ZM25 4.44427V27.7778C25 28.3671 24.7606 28.9324 24.3343 29.3491C23.9081 29.7659 23.33 30 22.7273 30H2.27273C1.66996 30 1.09189 29.7659 0.665666 29.3491C0.239447 28.9324 0 28.3671 0 27.7778V4.44427C0 3.8549 0.239447 3.28966 0.665666 2.87291C1.09189 2.45616 1.66996 2.22204 2.27273 2.22204H7.4233C8.0618 1.52304 8.84408 0.963774 9.71894 0.580856C10.5938 0.197938 11.5415 0 12.5 0C13.4585 0 14.4062 0.197938 15.2811 0.580856C16.1559 0.963774 16.9382 1.52304 17.5767 2.22204H22.7273C23.33 2.22204 23.9081 2.45616 24.3343 2.87291C24.7606 3.28966 25 3.8549 25 4.44427ZM7.95455 6.66651H17.0455C17.0455 5.48776 16.5666 4.35729 15.7141 3.52379C14.8617 2.69029 13.7055 2.22204 12.5 2.22204C11.2945 2.22204 10.1383 2.69029 9.28588 3.52379C8.43344 4.35729 7.95455 5.48776 7.95455 6.66651ZM22.7273 4.44427H18.9276C19.1861 5.15791 19.3182 5.90943 19.3182 6.66651V7.77763C19.3182 8.07232 19.1985 8.35493 18.9853 8.56331C18.7722 8.77168 18.4832 8.88875 18.1818 8.88875H6.81818C6.5168 8.88875 6.22776 8.77168 6.01465 8.56331C5.80154 8.35493 5.68182 8.07232 5.68182 7.77763V6.66651C5.68184 5.90943 5.81395 5.15791 6.07244 4.44427H2.27273V27.7778H22.7273V4.44427Z" fill="white"/>
</svg>
